<svg width="20" height="13" viewBox="0 0 20 13" fill="none" xmlns="http://www.w3.org/2000/svg">
<path d="M16.6756 1.07708C15.413 0.57029 14.0807 0.208586 12.7119 0.000983483C12.6995 -0.000843158 12.6868 0.00073445 12.6755 0.00549944C12.6641 0.0102644 12.6548 0.0179828 12.6486 0.0275932C12.4771 0.29369 12.2872 0.641745 12.1546 0.914228C10.6791 0.71839 9.17829 0.71839 7.70283 0.914228C7.55486 0.610686 7.38746 0.314672 7.20143 0.0275932C7.19519 0.018088 7.1858 0.0104586 7.17451 0.00570893C7.16321 0.00095925 7.15054 -0.000688114 7.13815 0.000983483C5.76904 0.207475 4.43645 0.569367 3.17444 1.07708C3.16364 1.08068 3.1546 1.08746 3.14888 1.09624C0.624858 4.39478 -0.0676055 7.61242 0.271933 10.7896C0.27315 10.8045 0.284102 10.8194 0.297489 10.829C1.76727 11.7812 3.41125 12.5082 5.15934 12.9791C5.17168 12.9825 5.18494 12.9823 5.1972 12.9787C5.20945 12.9751 5.22006 12.9681 5.22749 12.9588C5.60232 12.5118 5.93577 12.0403 6.22298 11.5443C6.22896 11.5341 6.23101 11.5224 6.22882 11.5111C6.22663 11.4998 6.22031 11.4894 6.21081 11.4815C6.20452 11.4763 6.19706 11.4723 6.1889 11.4698C5.66458 11.2935 5.15677 11.0818 4.67011 10.8365C4.65652 10.8297 4.64641 10.8187 4.64188 10.8056C4.63734 10.7925 4.63874 10.7784 4.64577 10.7662C4.64991 10.7583 4.65617 10.7513 4.66402 10.746C4.76625 10.6789 4.86848 10.6087 4.96584 10.5384C4.97444 10.5324 4.98476 10.5285 4.99569 10.5272C5.00662 10.5259 5.01776 10.5272 5.0279 10.531C8.21518 11.804 11.6653 11.804 14.8137 10.531C14.8242 10.527 14.8357 10.5256 14.8471 10.5269C14.8584 10.5282 14.8692 10.5322 14.8782 10.5384C14.9755 10.6087 15.0777 10.6789 15.18 10.746C15.1883 10.7513 15.1949 10.7583 15.1993 10.7664C15.2038 10.7745 15.2058 10.7834 15.2054 10.7924C15.2049 10.8013 15.2019 10.81 15.1966 10.8177C15.1913 10.8254 15.1839 10.8319 15.1751 10.8365C14.6895 11.084 14.1811 11.2955 13.6551 11.4687C13.6467 11.4714 13.6391 11.4756 13.6328 11.4811C13.6265 11.4866 13.6216 11.4933 13.6186 11.5006C13.6158 11.5077 13.6146 11.5153 13.6153 11.5228C13.6159 11.5303 13.6183 11.5376 13.6222 11.5443C13.9143 12.0392 14.249 12.5118 14.6165 12.9588C14.6239 12.9681 14.6345 12.9751 14.6468 12.9787C14.6591 12.9823 14.6723 12.9825 14.6847 12.9791C16.4357 12.5097 18.0823 11.7826 19.5538 10.829C19.5612 10.8245 19.5673 10.8187 19.5717 10.8119C19.5762 10.805 19.5788 10.7974 19.5794 10.7896C19.9858 7.11642 18.8991 3.92538 16.7 1.0973C16.6978 1.09263 16.6945 1.08842 16.6903 1.08494C16.6861 1.08145 16.6811 1.07878 16.6756 1.07708ZM6.69882 8.85456C5.73862 8.85456 4.9488 8.08395 4.9488 7.13877C4.9488 6.19253 5.72402 5.42191 6.69882 5.42191C7.68092 5.42191 8.46344 6.19891 8.44884 7.13877C8.44884 8.08395 7.67362 8.85456 6.69882 8.85456ZM13.1683 8.85456C12.2093 8.85456 11.4183 8.08395 11.4183 7.13877C11.4183 6.19253 12.1935 5.42191 13.1683 5.42191C14.1504 5.42191 14.9341 6.19891 14.9183 7.13877C14.9183 8.08395 14.1504 8.85456 13.1683 8.85456Z" fill="white"/>
</svg>
